<svg width="90" height="90" viewBox="0 0 90 90" fill="none" xmlns="http://www.w3.org/2000/svg">
<path d="M45 81.5785C65.2016 81.5785 81.5783 65.2018 81.5783 45.0002C81.5783 24.7985 65.2016 8.42188 45 8.42188C24.7983 8.42188 8.42168 24.7985 8.42168 45.0002C8.42168 65.2018 24.7983 81.5785 45 81.5785Z" fill="black" stroke="black" stroke-width="2" stroke-miterlimit="10"/>
<path d="M40.7813 43.5723C41.6302 43.174 42.3933 42.614 43.0277 41.9234C43.9383 40.8459 44.3865 39.4186 44.3865 37.6484C44.3865 35.9258 43.9383 34.4545 43.04 33.2187C41.5412 31.2078 38.9994 30.1766 35.4147 30.125H21.2027V59.1395H34.4531C35.8479 59.1494 37.2401 59.0187 38.6086 58.7492C39.8114 58.5191 40.9469 58.021 41.9309 57.292C42.7663 56.672 43.4736 55.8959 44.0139 55.0068C44.8925 53.6254 45.3483 52.0173 45.3252 50.3803C45.3252 48.7139 44.9438 47.2971 44.1809 46.1299C43.418 44.9662 42.2824 44.1207 40.7813 43.5723ZM27.0703 35.1647H33.4688C34.875 35.1647 36.034 35.3152 36.9457 35.6164C38.0004 36.0541 38.5277 36.9436 38.5277 38.3006C38.5277 39.517 38.1252 40.3678 37.3307 40.8459C36.5361 41.324 35.4938 41.5666 34.2193 41.5666H27.0703V35.1647ZM37.1936 53.5936C36.4904 53.9363 35.4885 54.1051 34.2053 54.1051H27.0703V46.3707H34.3107C35.5729 46.3813 36.5537 46.5465 37.2551 46.8594C38.5049 47.4254 39.1272 48.4607 39.1272 49.9742C39.1272 51.7549 38.4803 52.9625 37.1936 53.5936Z" fill="white" stroke="black" stroke-width="2" stroke-miterlimit="10"/>
<path d="M64.2234 31.4785H51.6182V35.0908H64.2234V31.4785Z" fill="white" stroke="black" stroke-width="2" stroke-miterlimit="10"/>
<path d="M68.6021 45.7311C68.3746 44.1379 67.7794 42.6195 66.8637 41.2961C65.9406 39.9 64.6362 38.7982 63.1055 38.1215C61.4899 37.4289 59.746 37.0862 57.9885 37.1161C54.8021 37.1161 52.21 38.108 50.2119 40.092C48.2139 42.076 47.2178 44.9278 47.2236 48.6473C47.2236 52.6129 48.331 55.4758 50.5459 57.236C52.7146 58.9798 55.4238 59.9123 58.2064 59.8727C61.7127 59.8727 64.4408 58.8303 66.3908 56.7455C67.6365 55.4307 68.3397 54.1375 68.5002 52.8661H62.6994C62.4126 53.4325 62.0137 53.9349 61.527 54.3426C60.7184 54.9965 59.6654 55.3235 58.3752 55.3235C57.1447 55.3235 56.1041 55.0528 55.2357 54.5149C53.8014 53.6518 53.0525 52.1401 52.9506 49.9903H68.7973C68.8166 48.1375 68.7568 46.7137 68.6021 45.7311ZM53.0859 46.2883C53.2934 44.8926 53.799 43.7858 54.6029 42.9678C55.4062 42.1522 56.5365 41.7373 57.9973 41.7373C59.3385 41.7373 60.4582 42.1205 61.374 42.8922C62.2898 43.6639 62.7803 44.7959 62.8875 46.2866L53.0859 46.2883Z" fill="white" stroke="black" stroke-width="2" stroke-miterlimit="10"/>
</svg>
