<svg width="90" height="90" viewBox="0 0 90 90" fill="none" xmlns="http://www.w3.org/2000/svg">
<path d="M0 0H90V90H0V0Z" fill="white"/>
<path d="M44.2336 80.394C64.4352 80.394 80.8119 64.0173 80.8119 43.8156C80.8119 23.614 64.4352 7.2373 44.2336 7.2373C24.0319 7.2373 7.65527 23.614 7.65527 43.8156C7.65527 64.0173 24.0319 80.394 44.2336 80.394Z" fill="black" stroke="black" stroke-width="2" stroke-miterlimit="10"/>
<path d="M37.9371 39.2434C39.8328 38.8617 41.7055 38.3734 43.5463 37.7809C41.2289 33.4795 38.2647 29.5596 34.7572 26.1582C29.6596 28.8934 25.7924 33.773 24.5426 39.5967C28.2867 40.3508 32.915 40.2541 37.9371 39.2434Z" fill="white" stroke="black" stroke-width="2" stroke-miterlimit="10"/>
<path d="M57.0076 28.4225L56.6789 29.718C56.1603 31.7939 51.7746 34.7629 46.023 36.9092L45.7629 37.0041C43.4563 32.6354 40.5172 28.6312 37.0406 25.1213C39.3192 24.2022 41.7503 23.7198 44.2072 23.6992C48.561 23.7268 52.7877 25.1692 56.25 27.809C56.5186 27.9928 56.772 28.1979 57.0076 28.4225Z" fill="white" stroke="black" stroke-width="2" stroke-miterlimit="10"/>
<path d="M46.6822 44.782C46.0705 43.1086 45.3867 41.482 44.6309 39.9023C42.5935 40.5831 40.5151 41.1343 38.4082 41.5529C35.5836 42.1299 32.7094 42.4296 29.8266 42.4477C27.9269 42.4583 26.0303 42.2929 24.1611 41.9537C24.1137 42.5654 24.1699 43.1842 24.1699 43.8152C24.169 46.7598 24.817 49.6684 26.0678 52.3341C27.3186 54.9998 29.1415 57.3571 31.4068 59.2383C31.4297 59.0977 31.4543 58.9553 31.4772 58.8146C32.3736 53.3865 38.6438 47.6578 46.6822 44.782Z" fill="white" stroke="black" stroke-width="2" stroke-miterlimit="10"/>
<path d="M47.4609 46.999C49.0941 52.1999 49.9674 57.6095 50.0537 63.0602C47.3569 63.8906 44.5131 64.132 41.7148 63.7681C38.9166 63.4042 36.2291 62.4434 33.8344 60.9508C33.7205 60.3675 33.7127 59.7684 33.8115 59.1824C34.5428 54.7316 40.3875 49.5707 47.4609 46.999Z" fill="white" stroke="black" stroke-width="2" stroke-miterlimit="10"/>
<path d="M64.1109 46.6686C63.1213 53.5768 58.5404 59.3513 52.3635 62.1093C52.1969 56.7376 51.2925 51.4143 49.6758 46.289C54.958 44.8247 59.9625 45.0005 64.1109 46.6686Z" fill="white" stroke="black" stroke-width="2" stroke-miterlimit="10"/>
<path d="M64.3236 43.8148V44.2402C59.8219 42.5668 54.4799 42.4947 48.9217 44.075C48.31 42.377 47.6016 40.7352 46.8475 39.125C50.7146 37.6695 57.9533 34.3209 58.9641 30.2832C62.3869 33.9604 64.3003 38.7912 64.3236 43.8148Z" fill="white" stroke="black" stroke-width="2" stroke-miterlimit="10"/>
<path d="M37.9336 39.2344C39.832 38.8477 41.6953 38.3555 43.541 37.7754C41.2207 33.4687 38.2676 29.5488 34.752 26.1562C29.6543 28.8984 25.7871 33.7676 24.5391 39.5859C28.2832 40.3594 32.9062 40.2539 37.9336 39.2344Z" stroke="black" stroke-width="2" stroke-miterlimit="10"/>
<path d="M57.0059 28.4238L56.6719 29.7246C56.1445 31.7988 51.7676 34.7695 46.0195 36.9141L45.7559 37.002C43.4531 32.625 40.5176 28.6348 37.0371 25.1191C39.3223 24.2051 41.748 23.7129 44.209 23.6953C48.5684 23.7305 52.7871 25.1719 56.25 27.8086C56.5137 27.9844 56.7773 28.1953 57.0059 28.4238Z" stroke="black" stroke-width="2" stroke-miterlimit="10"/>
<path d="M46.6875 44.7891C46.0723 43.1191 45.3867 41.4844 44.6309 39.9023C42.5918 40.5879 40.5176 41.1328 38.4082 41.5547C35.5781 42.1348 32.7129 42.4336 29.8301 42.4512C27.9316 42.4688 26.0332 42.293 24.1699 41.959C24.1172 42.5742 24.1875 43.1895 24.1875 43.8223C24.1875 49.7813 26.8418 55.4414 31.4297 59.2383C31.4473 59.0977 31.4824 58.957 31.5 58.8164C32.3789 53.3848 38.6367 47.6543 46.6875 44.7891Z" stroke="black" stroke-width="2" stroke-miterlimit="10"/>
<path d="M47.4609 47.0039C49.0957 52.207 49.9746 57.6211 50.0625 63.0703C44.6133 64.7578 38.6895 63.9844 33.8379 60.9609C33.7148 60.3809 33.7148 59.7832 33.8203 59.1855C34.541 54.7383 40.3945 49.5703 47.4609 47.0039Z" stroke="black" stroke-width="2" stroke-miterlimit="10"/>
<path d="M64.1074 46.6701C63.123 53.5783 58.5352 59.3439 52.3652 62.1037C52.207 56.7248 51.293 51.4162 49.6758 46.2834C54.9492 44.8244 59.959 45.0002 64.1074 46.6701Z" stroke="black" stroke-width="2" stroke-miterlimit="10"/>
<path d="M64.3184 43.8223V44.2441C59.8184 42.5742 54.4746 42.5039 48.9199 44.0859C48.3047 42.3809 47.6016 40.7461 46.8457 39.1289C50.7129 37.6699 57.9551 34.3301 58.957 30.2871C62.3848 33.9609 64.3008 38.7949 64.3184 43.8223Z" stroke="black" stroke-width="2" stroke-miterlimit="10"/>
<path d="M44.2266 80.4023C64.4292 80.4023 80.8066 64.0249 80.8066 43.8223C80.8066 23.6196 64.4292 7.24219 44.2266 7.24219C24.0239 7.24219 7.64648 23.6196 7.64648 43.8223C7.64648 64.0249 24.0239 80.4023 44.2266 80.4023Z" stroke="black" stroke-width="2" stroke-miterlimit="10"/>
</svg>
