<svg width="90" height="90" viewBox="0 0 90 90" fill="none" xmlns="http://www.w3.org/2000/svg">
<path d="M47.6596 82.9457C67.8612 82.9457 84.2379 66.569 84.2379 46.3674C84.2379 26.1657 67.8612 9.78906 47.6596 9.78906C27.4579 9.78906 11.0812 26.1657 11.0812 46.3674C11.0812 66.569 27.4579 82.9457 47.6596 82.9457Z" fill="black" stroke="black" stroke-width="2" stroke-miterlimit="10"/>
<path d="M61.2668 29.6014C55.9494 29.4081 52.3582 32.4561 50.4633 38.6981C51.3539 38.288 52.3217 38.0729 53.3022 38.0671C55.2498 38.0671 56.1147 39.1797 55.8809 41.3928C55.7637 42.7346 54.9053 44.6864 53.3057 47.2481C51.7061 49.8098 50.4996 51.0924 49.6863 51.096C47.2553 51.096 45.7928 39.4592 45.2918 36.2811C44.6027 31.8643 42.767 29.7995 39.7846 30.0866C37.0459 30.3467 32.2682 35.2774 28.5135 38.619L30.317 40.971C32.035 39.7546 33.0369 39.1458 33.3229 39.1446C36.3111 39.1446 37.7596 49.3171 40.0799 56.8809C41.6373 61.0557 43.5059 63.144 45.7576 63.144C49.3729 63.144 53.7879 59.7174 59.0027 52.8643C64.0418 46.3018 66.6481 41.1333 66.8215 37.3587L66.8426 37.3428C67.0553 32.2874 65.2113 29.6981 61.2615 29.6085L61.2668 29.6014Z" fill="white" stroke="black" stroke-width="2" stroke-miterlimit="10"/>
</svg>
