<svg width="137" height="74" viewBox="0 0 137 74" fill="none" xmlns="http://www.w3.org/2000/svg">
<path d="M35.2515 16.22L25.6374 35.168H36.7056V47.448H6.56158L16.0995 28.436H6.18503V16.22H35.2515Z" fill="black"/>
<path d="M71.7047 33.728H46.3156C46.0615 32.9281 45.9265 32.0951 45.915 31.256C45.9122 30.2071 46.0995 29.1663 46.4678 28.184H60.0356C59.619 25.8693 58.3131 24.7107 56.1179 24.708C55.4139 24.6995 54.7187 24.8653 54.0944 25.1905C53.4702 25.5158 52.9364 25.9904 52.5407 26.572C51.6194 27.8147 51.16 29.4067 51.1627 31.348C51.1627 33.376 51.6033 35.012 52.4926 36.268C52.8689 36.8507 53.3871 37.3285 53.9988 37.6566C54.6104 37.9847 55.2955 38.1524 55.9897 38.144C57.1648 38.144 58.2944 37.56 59.3787 36.392L66.0604 44.392C63.128 46.775 59.4621 48.0748 55.6813 48.072C51.0372 48.072 47.1382 46.5173 43.9842 43.408C40.8303 40.2987 39.2546 36.4467 39.2573 31.852C39.2125 29.6939 39.6141 27.5498 40.4371 25.5538C41.2601 23.5579 42.4867 21.7529 44.0403 20.252C47.229 17.1 51.1453 15.524 55.7894 15.524C60.3294 15.524 64.1403 17.064 67.2221 20.144C70.304 23.224 71.8462 27.0187 71.8489 31.528C71.8369 32 71.7928 32.728 71.7047 33.728Z" fill="black"/>
<path d="M93.7368 15.908V28.436C93.0657 28.0199 92.2988 27.783 91.5096 27.748C89.3731 27.748 88.3049 29.376 88.3049 32.632V67.464H76.5718V30.4C76.5718 25.888 77.8056 22.288 80.2732 19.6C82.7408 16.912 86.0336 15.5707 90.1516 15.576C91.3533 15.5979 92.5516 15.7089 93.7368 15.908Z" fill="black"/>
<path d="M130.991 20.188C131.026 22.3362 130.618 24.4687 129.791 26.4521C128.964 28.4356 127.736 30.2275 126.184 31.716C123.087 34.7709 118.909 36.484 114.555 36.484C110.202 36.484 106.024 34.7709 102.926 31.716C101.371 30.2326 100.139 28.4444 99.3074 26.4635C98.4761 24.4826 98.0634 22.3516 98.0952 20.204C98.05 18.0504 98.4564 15.9112 99.2884 13.9238C100.12 11.9364 101.36 10.1448 102.926 8.664C106.147 5.544 110.121 3.98267 114.848 3.98C116.974 3.95352 119.084 4.36381 121.045 5.18539C123.006 6.00698 124.777 7.22233 126.248 8.756C127.775 10.2402 128.982 12.0192 129.798 13.9846C130.613 15.9501 131.019 18.0608 130.991 20.188Z" fill="black"/>
<path d="M8.41228 54.916V64.996H7.18249V54.916H8.41228ZM7.86348 64.996V63.772H10.2149C10.746 63.7779 11.2738 63.6885 11.7732 63.508C12.2224 63.3392 12.6317 63.079 12.9749 62.744C13.3176 62.4046 13.5827 61.9952 13.7521 61.544C14.1206 60.5201 14.1206 59.4 13.7521 58.376C13.5822 57.925 13.3172 57.5157 12.9749 57.176C12.6328 56.8396 12.2232 56.5792 11.7732 56.412C11.274 56.2302 10.7462 56.1394 10.2149 56.144H7.85948V54.92H10.2109C11.1204 54.9011 12.0191 55.1189 12.8187 55.552C13.5689 55.9614 14.1893 56.5725 14.6093 57.316C15.0358 58.1316 15.2585 59.038 15.2585 59.958C15.2585 60.878 15.0358 61.7844 14.6093 62.6C14.1871 63.3418 13.5673 63.9524 12.8187 64.364C12.0191 64.7971 11.1204 65.015 10.2109 64.996H7.86348Z" fill="black"/>
<path d="M21.2711 54.916V64.996H20.0292V54.916H21.2711ZM20.7223 54.916H25.8137V56.068H20.7223V54.916ZM20.7223 58.948H25.5293V60.1H20.7223V58.948ZM20.7223 63.844H25.8137V64.996H20.7223V63.844Z" fill="black"/>
<path d="M32.1389 63.012C32.3773 63.3032 32.668 63.5474 32.9962 63.732C33.3292 63.9074 33.7013 63.9955 34.0777 63.988C34.5512 64.0103 35.0153 63.8515 35.3756 63.544C35.5351 63.4 35.6614 63.2231 35.7458 63.0256C35.8302 62.8281 35.8706 62.6146 35.8644 62.4C35.8841 62.0146 35.7725 61.634 35.5479 61.32C35.3239 61.0434 35.0405 60.8206 34.7187 60.668C34.3712 60.4967 34.0141 60.3458 33.6491 60.216C33.4008 60.132 33.1204 60.016 32.8119 59.88C32.4997 59.7358 32.2053 59.5559 31.9346 59.344C31.6536 59.1272 31.4204 58.8549 31.2496 58.544C31.0603 58.1845 30.9678 57.782 30.9812 57.376C30.9736 56.9023 31.1044 56.4366 31.3578 56.036C31.6125 55.6381 31.9712 55.3172 32.3953 55.108C32.8657 54.8758 33.3848 54.7592 33.9095 54.768C34.4056 54.7564 34.8973 54.8633 35.3436 55.08C35.7404 55.2769 36.0955 55.5486 36.3891 55.88C36.6662 56.1815 36.8946 56.5243 37.0661 56.896L36.0166 57.5C35.8834 57.2389 35.7237 56.9923 35.5399 56.764C35.3477 56.5234 35.1093 56.3235 34.8389 56.176C34.5309 56.013 34.1857 55.933 33.8374 55.944C33.6204 55.9256 33.4019 55.9516 33.1953 56.0204C32.9886 56.0891 32.7982 56.1993 32.6356 56.344C32.4 56.5783 32.2662 56.8959 32.2631 57.228C32.2515 57.4974 32.3153 57.7647 32.4474 58C32.6334 58.2752 32.8818 58.5026 33.1724 58.664C33.616 58.913 34.0829 59.118 34.5665 59.276C34.8573 59.3815 35.141 59.5058 35.4157 59.648C35.7176 59.8037 35.9967 60.0002 36.2449 60.232C36.5046 60.474 36.7177 60.7614 36.8738 61.08C37.0478 61.4555 37.1315 61.8664 37.1182 62.28C37.1252 62.6938 37.039 63.1039 36.8658 63.48C36.7028 63.8288 36.4664 64.1385 36.1728 64.388C35.8782 64.6369 35.5419 64.8319 35.1794 64.964C34.7444 65.1185 34.2829 65.1846 33.822 65.1585C33.3611 65.1324 32.9101 65.0146 32.4954 64.812C32.0329 64.5776 31.6174 64.2603 31.2696 63.876C30.939 63.4921 30.6614 63.0656 30.4444 62.608L31.4259 61.944C31.6312 62.3205 31.8699 62.6779 32.1389 63.012Z" fill="black"/>
<path d="M43.2191 54.916V64.996H41.9933V54.916H43.2191Z" fill="black"/>
<path d="M53.2778 59.884H57.9646C57.9697 60.5635 57.8628 61.2392 57.6482 61.884C57.4447 62.4968 57.1266 63.0656 56.7108 63.56C56.2947 64.0534 55.775 64.4494 55.1886 64.72C54.5438 65.0126 53.8417 65.1575 53.1336 65.144C52.4382 65.1517 51.748 65.0226 51.1026 64.764C50.4892 64.5178 49.9328 64.1488 49.4677 63.6796C49.0027 63.2104 48.6388 62.651 48.3986 62.036C47.8858 60.7007 47.8858 59.2233 48.3986 57.888C48.6411 57.2718 49.0064 56.7111 49.4722 56.24C49.9349 55.7711 50.4901 55.4034 51.1026 55.16C51.7467 54.8947 52.4368 54.7587 53.1336 54.76C53.717 54.7544 54.2979 54.838 54.8561 55.008C55.3672 55.1606 55.8463 55.4045 56.2701 55.728C56.6981 56.056 57.0586 56.4634 57.3317 56.928L56.4664 57.728C56.1524 57.1915 55.6927 56.7546 55.1405 56.468C54.521 56.1526 53.8327 55.9959 53.1376 56.012C52.4663 56.0022 51.8049 56.1731 51.2226 56.5067C50.6404 56.8403 50.1589 57.3244 49.8287 57.908C49.4913 58.5431 49.3149 59.2511 49.3149 59.97C49.3149 60.6889 49.4913 61.3969 49.8287 62.032C50.1577 62.6169 50.6389 63.1023 51.2213 63.4367C51.8037 63.7712 52.4658 63.9423 53.1376 63.932C53.5971 63.9394 54.0542 63.8649 54.4875 63.712C54.868 63.5709 55.2176 63.3576 55.517 63.084C55.8041 62.8188 56.045 62.508 56.2301 62.164C56.4146 61.8137 56.5495 61.4394 56.6307 61.052H53.2778V59.884Z" fill="black"/>
<path d="M71.7047 54.916V65.5L64.0615 57.5V65H62.8317V54.4L70.4789 62.4V54.916H71.7047Z" fill="black"/>
</svg>
